<svg width="17" height="18" viewBox="0 0 17 18" xmlns="http://www.w3.org/2000/svg"><title>Page 1</title><path d="M15.978 15.732h-1.486v-4.978a.26.26 0 0 0-.26-.26H11V.276a.261.261 0 0 0-.26-.26H2.006a.26.26 0 0 0-.26.26v15.456H.26a.261.261 0 0 0-.26.263v1.744c0 .142.115.261.26.261h15.716a.26.26 0 0 0 .26-.26v-1.746a.26.26 0 0 0-.258-.262zm-7.143-3.076v3.18H7.401v-3.18h1.434zM7.402 5.36V2.18h1.435v3.18H7.402zm1.433 5.239H7.401v-3.18h1.434v3.18zm-3.491 2.058v3.18H3.909v-3.18h1.435zM3.909 5.36V2.18h1.435v3.18H3.909zm1.435 5.239H3.909v-3.18h1.435v3.18zm5.552 5.237v-3.18h1.434v3.18h-1.434z" fill="#AAB7C4" fill-rule="evenodd"/></svg>