<svg width="20" height="20" viewBox="0 0 20 20" xmlns="http://www.w3.org/2000/svg"><title>Page 1</title><path d="M10 20C4.477 20 0 15.523 0 10S4.477 0 10 0s10 4.477 10 10-4.477 10-10 10zM4 9a1 1 0 1 0 0 2 1 1 0 0 0 0-2zm2.46-3.95a1 1 0 1 0 0 1.415.981.981 0 0 0 0-1.415zM10 3a1 1 0 1 0 0 2 1 1 0 0 0 0-2zm2 10.982a1.934 1.934 0 0 0-.295-1.017L9.99 7.014l-1.72 6c-.156.26-.251.572-.26.907l-.02.072H8V14a2 2 0 1 0 4 0v-.018zm2.95-8.932a.998.998 0 0 0-1.41 0 .982.982 0 0 0 0 1.415 1 1 0 0 0 1.41-1.414V5.05zM16 9a1 1 0 1 0 0 2 1 1 0 0 0 0-2z" fill="#AAB7C4" fill-rule="evenodd"/></svg>