<svg width="20" height="14" viewBox="0 0 20 14" xmlns="http://www.w3.org/2000/svg"><title>Page 1</title><path d="M20 12.06v1.783H0v-1.89a1.33 1.33 0 0 1 .481-1.027 21.685 21.685 0 0 1 3.93-2.52.12.12 0 0 0 .069-.11V7.021a3.052 3.052 0 0 1-.382-1.043c-.146-.013-.337-.217-.544-.947-.267-.94-.016-1.127.225-1.125-.128-.547-.455-2.456.966-3.323a.762.762 0 0 1-.27-.58S6.1.187 6.88.026c.78-.16 1.624.455 1.76 1.046 0 0 1.59 0 .973 2.842.247-.01.518.16.245 1.125-.203.73-.406.935-.544.946a3.052 3.052 0 0 1-.382 1.043v1.274c0 .046.026.09.069.11a22.313 22.313 0 0 1 2.842 1.696c.252-.084.499-.186.737-.304l.044-.026a.446.446 0 0 0 .203-.374V8.64c-2.003.018-2.595-.84-2.595-.84s1.146-.019 1.075-3.046c-.072-3.027 1.32-3.517 1.838-3.72 1.512-.575 2.272.339 2.272.339 1.754-.163 2.233 1.754 2.03 3.934-.203 2.18.974 2.527.974 2.527-.824.84-2.557.788-2.557.788v.781c0 .151.076.292.203.374l.053.032c.609.319 1.86.65 1.884.662.409.111.807.261 1.187.448.452.212.76.645.81 1.141z" fill="#AAB7C4" fill-rule="evenodd"/></svg>