<?xml version="1.0" encoding="UTF-8"?>
<svg width="86px" height="41px" viewBox="0 0 86 41" version="1.1" xmlns="http://www.w3.org/2000/svg" xmlns:xlink="http://www.w3.org/1999/xlink">
    <!-- Generator: Sketch 42 (36781) - http://www.bohemiancoding.com/sketch -->
    <title>Artboard</title>
    <desc>Created with Sketch.</desc>
    <defs></defs>
    <g id="Page-1" stroke="none" stroke-width="1" fill="none" fill-rule="evenodd">
        <g id="Artboard">
            <path d="M10.807796,18.8872727 C10.702513,13.3830303 5.95099329,8.88727273 0.259447265,8.88727273 L0.259447265,5.8569697 C7.67437488,5.8569697 13.784546,11.6642424 13.941217,18.8375758 L10.807796,18.8872727 Z M16.8665789,18.7878788 C16.7099079,10.1018182 9.24108542,3.03030303 0.259447265,3.03030303 L0.259447265,0 C10.964467,0 19.7919408,8.3830303 20,18.7381818 L16.8665789,18.7878788 Z M3.18480917,19.3418182 C1.41003948,19.3418182 0,17.9781818 0,16.2618182 C0,14.5454545 1.41003948,13.1818182 3.18480917,13.1818182 C4.95957887,13.1818182 6.36961835,14.5454545 6.36961835,16.2618182 C6.36961835,17.9806061 4.95957887,19.3418182 3.18480917,19.3418182 Z" id="Combined-Shape" fill="#AAB7C4"></path>
            <path d="M10.807796,38.8872727 C10.702513,33.3830303 5.95099329,28.8872727 0.259447265,28.8872727 L0.259447265,25.8569697 C7.67437488,25.8569697 13.784546,31.6642424 13.941217,38.8375758 L10.807796,38.8872727 Z M16.8665789,38.7878788 C16.7099079,30.1018182 9.24108542,23.030303 0.259447265,23.030303 L0.259447265,20 C10.964467,20 19.7919408,28.3830303 20,38.7381818 L16.8665789,38.7878788 Z M3.18480917,39.3418182 C1.41003948,39.3418182 0,37.9781818 0,36.2618182 C0,34.5454545 1.41003948,33.1818182 3.18480917,33.1818182 C4.95957887,33.1818182 6.36961835,34.5454545 6.36961835,36.2618182 C6.36961835,37.9806061 4.95957887,39.3418182 3.18480917,39.3418182 Z" id="Combined-Shape-Copy" fill="#3D75ED"></path>
            <path d="M42,15.0602456 L42,16.842895 L22.000005,16.842895 L22.000005,14.9536006 C21.9989223,14.5559826 22.1754008,14.1794771 22.4809901,13.9258569 C23.6968512,12.9468342 25.0142145,12.1009825 26.4111556,11.4050834 C26.4533805,11.3850536 26.4796357,11.3428287 26.4796357,11.2951903 L26.4796357,10.0222173 C26.2893529,9.70092897 26.1605128,9.3466186 26.0979874,8.9787746 C25.9520949,8.96605299 25.7607294,8.76196588 25.5536649,8.03223268 C25.2870525,7.09245757 25.5376952,6.90515216 25.7788645,6.90731754 C25.6508364,6.35974696 25.3241346,4.45123478 26.7451655,3.58427059 C26.5749125,3.43946077 26.4755756,3.22779483 26.4755756,3.00367796 C26.4755756,3.00367796 28.099611,3.18665261 28.8788773,3.02587311 C29.6581435,2.86536428 30.5029126,3.480603 30.6393315,4.07175186 C30.6393315,4.07175186 32.2284501,4.07175186 31.611858,6.91381368 C31.8592527,6.90325745 32.1299253,7.07432251 31.857358,8.03872882 C31.6543536,8.76927404 31.4513492,8.97444384 31.3127649,8.98500007 C31.2502395,9.35284407 31.1213994,9.70715444 30.9311166,10.0284428 L30.9311166,11.3016865 C30.9311166,11.3479715 30.9573718,11.3915497 30.9998674,11.4115795 C31.9883636,11.9063689 32.9378829,12.4731573 33.8419292,13.1084258 C34.0944667,13.0239759 34.3407787,12.9224737 34.5786999,12.8039191 L34.6230902,12.7776639 C34.7500356,12.6951088 34.8260946,12.554359 34.8260946,12.4044064 L34.8260946,11.6400272 C32.8225764,11.6578915 32.2314275,10.7993182 32.2314275,10.7993182 C32.2314275,10.7993182 33.3766431,10.7814538 33.3057269,7.75425196 C33.2339987,4.72705011 34.6252556,4.23659144 35.1444055,4.03358703 C36.6563824,3.45949054 37.4156189,4.37301041 37.4156189,4.37301041 C39.1695771,4.21006553 39.6486675,6.12696856 39.4456631,8.30723599 C39.2426587,10.4875034 40.420355,10.834235 40.420355,10.834235 C39.5956157,11.6746732 37.86277,11.6218921 37.86277,11.6218921 L37.86277,12.4033238 C37.86277,12.554359 37.938829,12.6951088 38.0657744,12.7765812 L38.1185556,12.8093326 C38.7275688,13.1276435 39.9786174,13.4584054 40.0027072,13.471127 C40.4119641,13.5821027 40.8095821,13.732326 41.1901477,13.9193607 C41.6416295,14.1310267 41.9493842,14.5643734 42,15.0602456 Z" id="Page-1" fill="#AAB7C4"></path>
            <path d="M42,35.0602456 L42,36.842895 L22.000005,36.842895 L22.000005,34.9536006 C21.9989223,34.5559826 22.1754008,34.1794771 22.4809901,33.9258569 C23.6968512,32.9468342 25.0142145,32.1009825 26.4111556,31.4050834 C26.4533805,31.3850536 26.4796357,31.3428287 26.4796357,31.2951903 L26.4796357,30.0222173 C26.2893529,29.700929 26.1605128,29.3466186 26.0979874,28.9787746 C25.9520949,28.966053 25.7607294,28.7619659 25.5536649,28.0322327 C25.2870525,27.0924576 25.5376952,26.9051522 25.7788645,26.9073175 C25.6508364,26.359747 25.3241346,24.4512348 26.7451655,23.5842706 C26.5749125,23.4394608 26.4755756,23.2277948 26.4755756,23.003678 C26.4755756,23.003678 28.099611,23.1866526 28.8788773,23.0258731 C29.6581435,22.8653643 30.5029126,23.480603 30.6393315,24.0717519 C30.6393315,24.0717519 32.2284501,24.0717519 31.611858,26.9138137 C31.8592527,26.9032575 32.1299253,27.0743225 31.857358,28.0387288 C31.6543536,28.769274 31.4513492,28.9744438 31.3127649,28.9850001 C31.2502395,29.3528441 31.1213994,29.7071544 30.9311166,30.0284428 L30.9311166,31.3016865 C30.9311166,31.3479715 30.9573718,31.3915497 30.9998674,31.4115795 C31.9883636,31.9063689 32.9378829,32.4731573 33.8419292,33.1084258 C34.0944667,33.0239759 34.3407787,32.9224737 34.5786999,32.8039191 L34.6230902,32.7776639 C34.7500356,32.6951088 34.8260946,32.554359 34.8260946,32.4044064 L34.8260946,31.6400272 C32.8225764,31.6578915 32.2314275,30.7993182 32.2314275,30.7993182 C32.2314275,30.7993182 33.3766431,30.7814538 33.3057269,27.754252 C33.2339987,24.7270501 34.6252556,24.2365914 35.1444055,24.033587 C36.6563824,23.4594905 37.4156189,24.3730104 37.4156189,24.3730104 C39.1695771,24.2100655 39.6486675,26.1269686 39.4456631,28.307236 C39.2426587,30.4875034 40.420355,30.834235 40.420355,30.834235 C39.5956157,31.6746732 37.86277,31.6218921 37.86277,31.6218921 L37.86277,32.4033238 C37.86277,32.554359 37.938829,32.6951088 38.0657744,32.7765812 L38.1185556,32.8093326 C38.7275688,33.1276435 39.9786174,33.4584054 40.0027072,33.471127 C40.4119641,33.5821027 40.8095821,33.732326 41.1901477,33.9193607 C41.6416295,34.1310267 41.9493842,34.5643734 42,35.0602456 Z" id="Page-1-Copy" fill="#3D75ED"></path>
            <path d="M54,20 C48.47744,20 44,15.52256 44,10 C44,4.47744 48.47744,0 54,0 C59.52256,0 64,4.47744 64,10 C64,15.52256 59.52256,20 54,20 Z M48,9 C47.44736,9 47,9.44736 47,10 C47,10.55264 47.44736,11 48,11 C48.55264,11 49,10.55264 49,10 C49,9.44736 48.55264,9 48,9 Z M50.46016,5.04992 C50.27872,4.8688 50.0288,4.75744 49.75264,4.75744 C49.2,4.75744 48.75264,5.20512 48.75264,5.75744 C48.75264,6.31008 49.2,6.75744 49.75264,6.75744 C50.0288,6.75744 50.27872,6.64512 50.46016,6.46496 C50.64512,6.2864 50.76,6.03488 50.76,5.75744 C50.76,5.48 50.64512,5.23008 50.46016,5.04992 Z M54,3 C53.44736,3 53,3.44736 53,4 C53,4.55264 53.44736,5 54,5 C54.55264,5 55,4.55264 55,4 C55,3.44736 54.55264,3 54,3 Z M56,13.9824 C55.99744,13.60864 55.88992,13.26016 55.70496,12.96512 L53.99008,7.01376 L52.27008,13.01376 C52.1136,13.2736 52.01888,13.58624 52.00992,13.92128 L51.99008,13.99264 L52,13.99264 L52,14 C52,15.10496 52.89504,16 54,16 C55.10496,16 56,15.10496 56,14 L56,13.9824 Z M58.95008,5.04992 C58.76864,4.87008 58.52,4.75872 58.24512,4.75872 C57.96992,4.75872 57.72128,4.87008 57.53984,5.04992 C57.35488,5.2288 57.24,5.48 57.24,5.75744 C57.24,6.03488 57.35488,6.28512 57.53984,6.46496 C57.71616,6.6224 57.95008,6.71872 58.2064,6.71872 C58.75872,6.71872 59.2064,6.27136 59.2064,5.71872 C59.2064,5.46112 59.1088,5.22752 58.95008,5.0512 L58.95008,5.04992 Z M60,9 C59.44736,9 59,9.44736 59,10 C59,10.55264 59.44736,11 60,11 C60.55264,11 61,10.55264 61,10 C61,9.44736 60.55264,9 60,9 Z" id="Page-1" fill="#AAB7C4"></path>
            <path d="M54,40 C48.47744,40 44,35.52256 44,30 C44,24.47744 48.47744,20 54,20 C59.52256,20 64,24.47744 64,30 C64,35.52256 59.52256,40 54,40 Z M48,29 C47.44736,29 47,29.44736 47,30 C47,30.55264 47.44736,31 48,31 C48.55264,31 49,30.55264 49,30 C49,29.44736 48.55264,29 48,29 Z M50.46016,25.04992 C50.27872,24.8688 50.0288,24.75744 49.75264,24.75744 C49.2,24.75744 48.75264,25.20512 48.75264,25.75744 C48.75264,26.31008 49.2,26.75744 49.75264,26.75744 C50.0288,26.75744 50.27872,26.64512 50.46016,26.46496 C50.64512,26.2864 50.76,26.03488 50.76,25.75744 C50.76,25.48 50.64512,25.23008 50.46016,25.04992 Z M54,23 C53.44736,23 53,23.44736 53,24 C53,24.55264 53.44736,25 54,25 C54.55264,25 55,24.55264 55,24 C55,23.44736 54.55264,23 54,23 Z M56,33.9824 C55.99744,33.60864 55.88992,33.26016 55.70496,32.96512 L53.99008,27.01376 L52.27008,33.01376 C52.1136,33.2736 52.01888,33.58624 52.00992,33.92128 L51.99008,33.99264 L52,33.99264 L52,34 C52,35.10496 52.89504,36 54,36 C55.10496,36 56,35.10496 56,34 L56,33.9824 Z M58.95008,25.04992 C58.76864,24.87008 58.52,24.75872 58.24512,24.75872 C57.96992,24.75872 57.72128,24.87008 57.53984,25.04992 C57.35488,25.2288 57.24,25.48 57.24,25.75744 C57.24,26.03488 57.35488,26.28512 57.53984,26.46496 C57.71616,26.6224 57.95008,26.71872 58.2064,26.71872 C58.75872,26.71872 59.2064,26.27136 59.2064,25.71872 C59.2064,25.46112 59.1088,25.22752 58.95008,25.0512 L58.95008,25.04992 Z M60,29 C59.44736,29 59,29.44736 59,30 C59,30.55264 59.44736,31 60,31 C60.55264,31 61,30.55264 61,30 C61,29.44736 60.55264,29 60,29 Z" id="Page-1-Copy-2" fill="#3D75ED"></path>
            <path d="M83.9781333,16.7168 L82.4917333,16.7168 L82.4917333,11.7386667 C82.4917333,11.5949333 82.376,11.4781333 82.2312,11.4781333 L79,11.4781333 L79,1.26053333 C79,1.1168 78.8821333,1 78.7394667,1 L70.0072,1 C69.8634667,1 69.7469333,1.11573333 69.7469333,1.26053333 L69.7469333,16.7168 L68.2602667,16.7168 C68.1165333,16.7168 68,16.8344 68,16.9792 L68,18.724 C68,18.8656 68.1154667,18.9845333 68.2602667,18.9845333 L83.976,18.9845333 C84.1197333,18.9845333 84.2365333,18.8666667 84.2365333,18.724 L84.2365333,16.9781333 C84.2373333,16.8344 84.1218667,16.7168 83.9781333,16.7168 Z M76.8354667,13.6408 L76.8354667,16.8208 L75.4010667,16.8208 L75.4010667,13.6408 L76.8354667,13.6408 Z M75.4021333,6.34373333 L75.4021333,3.16266667 L76.8365333,3.16266667 L76.8365333,6.34373333 L75.4021333,6.34373333 Z M76.8354667,11.5824 L75.4010667,11.5824 L75.4010667,8.40213333 L76.8354667,8.40213333 L76.8354667,11.5824 Z M73.3437333,13.6408 L73.3437333,16.8208 L71.9093333,16.8208 L71.9093333,13.6408 L73.3437333,13.6408 Z M71.9093333,6.34373333 L71.9093333,3.16266667 L73.3437333,3.16266667 L73.3437333,6.34373333 L71.9093333,6.34373333 Z M73.3437333,11.5824 L71.9093333,11.5824 L71.9093333,8.40213333 L73.3437333,8.40213333 L73.3437333,11.5824 Z M78.8957333,16.82 L78.8957333,13.6397333 L80.3301333,13.6397333 L80.3301333,16.82 L78.8957333,16.82 Z" id="Page-1" fill="#AAB7C4"></path>
            <path d="M83.9781333,36.7168 L82.4917333,36.7168 L82.4917333,31.7386667 C82.4917333,31.5949333 82.376,31.4781333 82.2312,31.4781333 L79,31.4781333 L79,21.2605333 C79,21.1168 78.8821333,21 78.7394667,21 L70.0072,21 C69.8634667,21 69.7469333,21.1157333 69.7469333,21.2605333 L69.7469333,36.7168 L68.2602667,36.7168 C68.1165333,36.7168 68,36.8344 68,36.9792 L68,38.724 C68,38.8656 68.1154667,38.9845333 68.2602667,38.9845333 L83.976,38.9845333 C84.1197333,38.9845333 84.2365333,38.8666667 84.2365333,38.724 L84.2365333,36.9781333 C84.2373333,36.8344 84.1218667,36.7168 83.9781333,36.7168 Z M76.8354667,33.6408 L76.8354667,36.8208 L75.4010667,36.8208 L75.4010667,33.6408 L76.8354667,33.6408 Z M75.4021333,26.3437333 L75.4021333,23.1626667 L76.8365333,23.1626667 L76.8365333,26.3437333 L75.4021333,26.3437333 Z M76.8354667,31.5824 L75.4010667,31.5824 L75.4010667,28.4021333 L76.8354667,28.4021333 L76.8354667,31.5824 Z M73.3437333,33.6408 L73.3437333,36.8208 L71.9093333,36.8208 L71.9093333,33.6408 L73.3437333,33.6408 Z M71.9093333,26.3437333 L71.9093333,23.1626667 L73.3437333,23.1626667 L73.3437333,26.3437333 L71.9093333,26.3437333 Z M73.3437333,31.5824 L71.9093333,31.5824 L71.9093333,28.4021333 L73.3437333,28.4021333 L73.3437333,31.5824 Z M78.8957333,36.82 L78.8957333,33.6397333 L80.3301333,33.6397333 L80.3301333,36.82 L78.8957333,36.82 Z" id="Page-1-Copy-3" fill="#3D75ED"></path>
        </g>
    </g>
</svg>