<?xml version="1.0" encoding="UTF-8"?>
<svg width="20px" height="20px" viewBox="0 0 20 20" version="1.1" xmlns="http://www.w3.org/2000/svg" xmlns:xlink="http://www.w3.org/1999/xlink">
    <!-- Generator: Sketch 42 (36781) - http://www.bohemiancoding.com/sketch -->
    <title>Combined Shape</title>
    <desc>Created with Sketch.</desc>
    <defs></defs>
    <g id="Page-1" stroke="none" stroke-width="1" fill="none" fill-rule="evenodd">
        <g id="Desktop-HD-Copy-2" transform="translate(-42.000000, -165.000000)" fill="#AAB7C4">
            <path d="M52.807796,183.887273 C52.702513,178.38303 47.9509933,173.887273 42.2594473,173.887273 L42.2594473,170.85697 C49.6743749,170.85697 55.784546,176.664242 55.941217,183.837576 L52.807796,183.887273 Z M58.8665789,183.787879 C58.7099079,175.101818 51.2410854,168.030303 42.2594473,168.030303 L42.2594473,165 C52.964467,165 61.7919408,173.38303 62,183.738182 L58.8665789,183.787879 Z M45.1848092,184.341818 C43.4100395,184.341818 42,182.978182 42,181.261818 C42,179.545455 43.4100395,178.181818 45.1848092,178.181818 C46.9595789,178.181818 48.3696183,179.545455 48.3696183,181.261818 C48.3696183,182.980606 46.9595789,184.341818 45.1848092,184.341818 Z" id="Combined-Shape"></path>
        </g>
    </g>
</svg>