<?xml version="1.0" encoding="UTF-8"?>
<svg width="17px" height="18px" viewBox="0 0 17 18" version="1.1" xmlns="http://www.w3.org/2000/svg" xmlns:xlink="http://www.w3.org/1999/xlink">
    <!-- Generator: Sketch 42 (36781) - http://www.bohemiancoding.com/sketch -->
    <title>Page 1</title>
    <desc>Created with Sketch.</desc>
    <defs></defs>
    <g id="Page-1" stroke="none" stroke-width="1" fill="none" fill-rule="evenodd">
        <g id="Desktop-HD-Copy-2" transform="translate(-42.000000, -428.000000)" fill="#AAB7C4">
            <path d="M57.9781333,443.732267 L56.4917333,443.732267 L56.4917333,438.754133 C56.4917333,438.6104 56.376,438.4936 56.2312,438.4936 L53,438.4936 L53,428.276 C53,428.132267 52.8821333,428.015467 52.7394667,428.015467 L44.0072,428.015467 C43.8634667,428.015467 43.7469333,428.1312 43.7469333,428.276 L43.7469333,443.732267 L42.2602667,443.732267 C42.1165333,443.732267 42,443.849867 42,443.994667 L42,445.739467 C42,445.881067 42.1154667,446 42.2602667,446 L57.976,446 C58.1197333,446 58.2365333,445.882133 58.2365333,445.739467 L58.2365333,443.9936 C58.2373333,443.849867 58.1218667,443.732267 57.9781333,443.732267 Z M50.8354667,440.656267 L50.8354667,443.836267 L49.4010667,443.836267 L49.4010667,440.656267 L50.8354667,440.656267 Z M49.4021333,433.3592 L49.4021333,430.178133 L50.8365333,430.178133 L50.8365333,433.3592 L49.4021333,433.3592 Z M50.8354667,438.597867 L49.4010667,438.597867 L49.4010667,435.4176 L50.8354667,435.4176 L50.8354667,438.597867 Z M47.3437333,440.656267 L47.3437333,443.836267 L45.9093333,443.836267 L45.9093333,440.656267 L47.3437333,440.656267 Z M45.9093333,433.3592 L45.9093333,430.178133 L47.3437333,430.178133 L47.3437333,433.3592 L45.9093333,433.3592 Z M47.3437333,438.597867 L45.9093333,438.597867 L45.9093333,435.4176 L47.3437333,435.4176 L47.3437333,438.597867 Z M52.8957333,443.835467 L52.8957333,440.6552 L54.3301333,440.6552 L54.3301333,443.835467 L52.8957333,443.835467 Z" id="Page-1"></path>
        </g>
    </g>
</svg>