<?xml version="1.0" encoding="UTF-8"?>
<svg width="20px" height="20px" viewBox="0 0 20 20" version="1.1" xmlns="http://www.w3.org/2000/svg" xmlns:xlink="http://www.w3.org/1999/xlink">
    <!-- Generator: Sketch 42 (36781) - http://www.bohemiancoding.com/sketch -->
    <title>Page 1</title>
    <desc>Created with Sketch.</desc>
    <defs></defs>
    <g id="Page-1" stroke="none" stroke-width="1" fill="none" fill-rule="evenodd">
        <g id="Desktop-HD-Copy-2" transform="translate(-42.000000, -336.000000)" fill="#AAB7C4">
            <path d="M52,356 C46.47744,356 42,351.52256 42,346 C42,340.47744 46.47744,336 52,336 C57.52256,336 62,340.47744 62,346 C62,351.52256 57.52256,356 52,356 Z M46,345 C45.44736,345 45,345.44736 45,346 C45,346.55264 45.44736,347 46,347 C46.55264,347 47,346.55264 47,346 C47,345.44736 46.55264,345 46,345 Z M48.46016,341.04992 C48.27872,340.8688 48.0288,340.75744 47.75264,340.75744 C47.2,340.75744 46.75264,341.20512 46.75264,341.75744 C46.75264,342.31008 47.2,342.75744 47.75264,342.75744 C48.0288,342.75744 48.27872,342.64512 48.46016,342.46496 C48.64512,342.2864 48.76,342.03488 48.76,341.75744 C48.76,341.48 48.64512,341.23008 48.46016,341.04992 Z M52,339 C51.44736,339 51,339.44736 51,340 C51,340.55264 51.44736,341 52,341 C52.55264,341 53,340.55264 53,340 C53,339.44736 52.55264,339 52,339 Z M54,349.9824 C53.99744,349.60864 53.88992,349.26016 53.70496,348.96512 L51.99008,343.01376 L50.27008,349.01376 C50.1136,349.2736 50.01888,349.58624 50.00992,349.92128 L49.99008,349.99264 L50,349.99264 L50,350 C50,351.10496 50.89504,352 52,352 C53.10496,352 54,351.10496 54,350 L54,349.9824 Z M56.95008,341.04992 C56.76864,340.87008 56.52,340.75872 56.24512,340.75872 C55.96992,340.75872 55.72128,340.87008 55.53984,341.04992 C55.35488,341.2288 55.24,341.48 55.24,341.75744 C55.24,342.03488 55.35488,342.28512 55.53984,342.46496 C55.71616,342.6224 55.95008,342.71872 56.2064,342.71872 C56.75872,342.71872 57.2064,342.27136 57.2064,341.71872 C57.2064,341.46112 57.1088,341.22752 56.95008,341.0512 L56.95008,341.04992 Z M58,345 C57.44736,345 57,345.44736 57,346 C57,346.55264 57.44736,347 58,347 C58.55264,347 59,346.55264 59,346 C59,345.44736 58.55264,345 58,345 Z" id="Page-1"></path>
        </g>
    </g>
</svg>