<?xml version="1.0" encoding="UTF-8"?>
<svg width="20px" height="14px" viewBox="0 0 20 14" version="1.1" xmlns="http://www.w3.org/2000/svg" xmlns:xlink="http://www.w3.org/1999/xlink">
    <!-- Generator: Sketch 42 (36781) - http://www.bohemiancoding.com/sketch -->
    <title>Page 1</title>
    <desc>Created with Sketch.</desc>
    <defs></defs>
    <g id="Page-1" stroke="none" stroke-width="1" fill="none" fill-rule="evenodd">
        <g id="Desktop-HD-Copy-2" transform="translate(-42.000000, -255.000000)" fill="#AAB7C4">
            <path d="M62,267.060246 L62,268.842895 L42.000005,268.842895 L42.000005,266.953601 C41.9989223,266.555983 42.1754008,266.179477 42.4809901,265.925857 C43.6968512,264.946834 45.0142145,264.100983 46.4111556,263.405083 C46.4533805,263.385054 46.4796357,263.342829 46.4796357,263.29519 L46.4796357,262.022217 C46.2893529,261.700929 46.1605128,261.346619 46.0979874,260.978775 C45.9520949,260.966053 45.7607294,260.761966 45.5536649,260.032233 C45.2870525,259.092458 45.5376952,258.905152 45.7788645,258.907318 C45.6508364,258.359747 45.3241346,256.451235 46.7451655,255.584271 C46.5749125,255.439461 46.4755756,255.227795 46.4755756,255.003678 C46.4755756,255.003678 48.099611,255.186653 48.8788773,255.025873 C49.6581435,254.865364 50.5029126,255.480603 50.6393315,256.071752 C50.6393315,256.071752 52.2284501,256.071752 51.611858,258.913814 C51.8592527,258.903257 52.1299253,259.074323 51.857358,260.038729 C51.6543536,260.769274 51.4513492,260.974444 51.3127649,260.985 C51.2502395,261.352844 51.1213994,261.707154 50.9311166,262.028443 L50.9311166,263.301686 C50.9311166,263.347971 50.9573718,263.39155 50.9998674,263.41158 C51.9883636,263.906369 52.9378829,264.473157 53.8419292,265.108426 C54.0944667,265.023976 54.3407787,264.922474 54.5786999,264.803919 L54.6230902,264.777664 C54.7500356,264.695109 54.8260946,264.554359 54.8260946,264.404406 L54.8260946,263.640027 C52.8225764,263.657892 52.2314275,262.799318 52.2314275,262.799318 C52.2314275,262.799318 53.3766431,262.781454 53.3057269,259.754252 C53.2339987,256.72705 54.6252556,256.236591 55.1444055,256.033587 C56.6563824,255.459491 57.4156189,256.37301 57.4156189,256.37301 C59.1695771,256.210066 59.6486675,258.126969 59.4456631,260.307236 C59.2426587,262.487503 60.420355,262.834235 60.420355,262.834235 C59.5956157,263.674673 57.86277,263.621892 57.86277,263.621892 L57.86277,264.403324 C57.86277,264.554359 57.938829,264.695109 58.0657744,264.776581 L58.1185556,264.809333 C58.7275688,265.127644 59.9786174,265.458405 60.0027072,265.471127 C60.4119641,265.582103 60.8095821,265.732326 61.1901477,265.919361 C61.6416295,266.131027 61.9493842,266.564373 62,267.060246 Z" id="Page-1"></path>
        </g>
    </g>
</svg>